<svg width="62" height="63" viewBox="0 0 62 63" fill="none" xmlns="http://www.w3.org/2000/svg">
<path d="M60.82 28.3H61.82V27.3H60.82V28.3ZM38.2 28.3L37.4929 27.5929L35.7858 29.3H38.2V28.3ZM54.32 12.18L55.0271 12.8871L55.7342 12.18L55.0271 11.4729L54.32 12.18ZM50.16 8.01997L50.8671 7.31287L50.1657 6.61148L49.4587 7.30714L50.16 8.01997ZM34.04 23.88H33.04L33.04 26.2667L34.7413 24.5928L34.04 23.88ZM34.04 1.25997H35.04V0.259968H34.04V1.25997ZM28.06 1.25997V0.259968H27.06V1.25997H28.06ZM28.06 23.88L27.3587 24.5928L29.06 26.2667L29.06 23.88H28.06ZM11.94 8.01997L12.6413 7.30714L11.9343 6.61148L11.2329 7.31287L11.94 8.01997ZM7.78 12.18L7.07289 11.4729L6.36578 12.18L7.07289 12.8871L7.78 12.18ZM23.9 28.3V29.3H26.3142L24.6071 27.5929L23.9 28.3ZM1.28 28.3V27.3H0.279999V28.3H1.28ZM1.28 34.28H0.279999V35.28H1.28V34.28ZM23.9 34.28L24.6013 34.9928L26.3422 33.28H23.9V34.28ZM7.78 50.14L7.07866 49.4271L6.38146 50.1131L7.0518 50.8253L7.78 50.14ZM11.94 54.56L11.2118 55.2453L11.9182 55.9959L12.6471 55.2671L11.94 54.56ZM28.06 38.44H29.06V36.0257L27.3529 37.7329L28.06 38.44ZM28.06 61.06H27.06V62.06H28.06V61.06ZM34.04 61.06V62.06H35.04V61.06H34.04ZM34.04 38.44L34.7471 37.7329L33.04 36.0257V38.44H34.04ZM50.16 54.56L49.4529 55.2671L50.1817 55.9959L50.8882 55.2453L50.16 54.56ZM54.32 50.14L55.0482 50.8253L55.7185 50.1131L55.0213 49.4271L54.32 50.14ZM38.2 34.28V33.28H35.7577L37.4987 34.9928L38.2 34.28ZM60.82 34.28V35.28H61.82V34.28H60.82ZM60.82 27.3H38.2V29.3H60.82V27.3ZM38.9071 29.0071L55.0271 12.8871L53.6129 11.4729L37.4929 27.5929L38.9071 29.0071ZM55.0271 11.4729L50.8671 7.31287L49.4529 8.72708L53.6129 12.8871L55.0271 11.4729ZM49.4587 7.30714L33.3387 23.1671L34.7413 24.5928L50.8613 8.7328L49.4587 7.30714ZM35.04 23.88V1.25997H33.04V23.88H35.04ZM34.04 0.259968H28.06V2.25997H34.04V0.259968ZM27.06 1.25997V23.88H29.06V1.25997H27.06ZM28.7613 23.1671L12.6413 7.30714L11.2387 8.7328L27.3587 24.5928L28.7613 23.1671ZM11.2329 7.31287L7.07289 11.4729L8.4871 12.8871L12.6471 8.72708L11.2329 7.31287ZM7.07289 12.8871L23.1929 29.0071L24.6071 27.5929L8.4871 11.4729L7.07289 12.8871ZM23.9 27.3L1.28 27.3V29.3L23.9 29.3V27.3ZM0.279999 28.3L0.279999 34.28H2.28L2.28 28.3H0.279999ZM1.28 35.28L23.9 35.28V33.28L1.28 33.28L1.28 35.28ZM23.1987 33.5671L7.07866 49.4271L8.48133 50.8528L24.6013 34.9928L23.1987 33.5671ZM7.0518 50.8253L11.2118 55.2453L12.6682 53.8746L8.5082 49.4546L7.0518 50.8253ZM12.6471 55.2671L28.7671 39.1471L27.3529 37.7329L11.2329 53.8529L12.6471 55.2671ZM27.06 38.44L27.06 61.06H29.06L29.06 38.44H27.06ZM28.06 62.06H34.04V60.06H28.06V62.06ZM35.04 61.06L35.04 38.44H33.04L33.04 61.06H35.04ZM33.3329 39.1471L49.4529 55.2671L50.8671 53.8529L34.7471 37.7329L33.3329 39.1471ZM50.8882 55.2453L55.0482 50.8253L53.5918 49.4546L49.4318 53.8746L50.8882 55.2453ZM55.0213 49.4271L38.9013 33.5671L37.4987 34.9928L53.6187 50.8528L55.0213 49.4271ZM38.2 35.28H60.82V33.28H38.2V35.28ZM61.82 34.28V28.3H59.82V34.28H61.82Z" fill="white"/>
</svg>
